<svg width="35" height="17" viewBox="0 0 35 17" fill="none" xmlns="http://www.w3.org/2000/svg">
<path d="M1.48042 9.18187H33.467C33.8114 9.18187 34.0909 8.87642 34.0909 8.50006C34.0909 8.12369 33.8114 7.81824 33.467 7.81824H1.48042C1.13604 7.81824 0.856537 8.12369 0.856537 8.50006C0.856537 8.87642 1.13604 9.18187 1.48042 9.18187Z" fill="#EFEFEF"/>
<path d="M26.1893 16C26.2672 16 26.3451 15.9718 26.4047 15.916L34.0358 8.70203C34.0924 8.64794 34.1247 8.57487 34.1247 8.49835C34.1247 8.42182 34.0924 8.34875 34.0358 8.29467L26.4041 1.08415C26.2854 0.971951 26.0925 0.971951 25.9738 1.08415C25.8551 1.19634 25.8551 1.37874 25.9738 1.49093L33.39 8.49835L25.9738 15.5086C25.8551 15.6208 25.8551 15.8032 25.9738 15.9154C26.0334 15.9718 26.1114 16 26.1893 16Z" fill="#EFEFEF" stroke="#EFEFEF" stroke-width="0.681818"/>
</svg>
