<svg width="70" height="55" viewBox="0 0 70 55" fill="none" xmlns="http://www.w3.org/2000/svg">
<path d="M68.8336 0.166687H43.1669C42.5226 0.166687 42.0002 0.689062 42.0002 1.33335V29.3334H36.1669V28.1667H37.3336C37.9779 28.1667 38.5002 27.6443 38.5002 27C38.5002 26.3557 37.9779 25.8334 37.3336 25.8334H25.6669C25.0226 25.8334 24.5002 26.3557 24.5002 27C24.5002 27.6443 25.0226 28.1667 25.6669 28.1667H26.8336V29.3334H15.1669V28.1667H16.3336C16.9779 28.1667 17.5002 27.6443 17.5002 27C17.5002 26.3557 16.9779 25.8334 16.3336 25.8334H4.66691C4.02262 25.8334 3.50024 26.3557 3.50024 27C3.50024 27.6443 4.02262 28.1667 4.66691 28.1667H5.83358V29.3334H1.16691C0.522619 29.3334 0.000244141 29.8557 0.000244141 30.5V53.8334C0.000244141 54.4776 0.522619 55 1.16691 55H68.8336C69.4779 55 70.0002 54.4776 70.0002 53.8334V1.33335C70.0002 0.689062 69.4779 0.166687 68.8336 0.166687ZM29.1669 28.1667H33.8336V29.3334H29.1669V28.1667ZM8.16691 28.1667H12.8336V29.3334H8.16691V28.1667ZM18.6669 52.6667H2.33358V38.6667H18.6669V52.6667ZM18.6669 36.3334H2.33358V31.6667H18.6669V36.3334ZM42.0002 52.6667H21.0002V31.6667H42.0002V52.6667ZM67.6669 52.6667H44.3336V21.1667H67.6669V52.6667ZM67.6669 18.8334H44.3336V2.50002H67.6669V18.8334Z" fill="white"/>
</svg>
