<svg width="40" height="70" viewBox="0 0 40 70" fill="none" xmlns="http://www.w3.org/2000/svg">
<path d="M39.8313 23.4527V3.69134C39.8301 2.71268 39.4408 1.77443 38.7488 1.08241C38.0568 0.390384 37.1185 0.00109681 36.1399 -6.10352e-05H3.69159C2.71292 0.00109681 1.77467 0.390384 1.08265 1.08241C0.390628 1.77443 0.00134095 2.71268 0.000183105 3.69134V23.4527C0.000513178 23.9686 0.109358 24.4786 0.31965 24.9497C0.529941 25.4208 0.836975 25.8424 1.22081 26.187C0.836975 26.5317 0.529941 26.9533 0.31965 27.4244C0.109358 27.8955 0.000513178 28.4055 0.000183105 28.9214V62.3519C0.00134095 63.3306 0.390628 64.2688 1.08265 64.9608C1.77467 65.6528 2.71292 66.0421 3.69159 66.0433H4.19307V68.98C4.19307 69.2338 4.2939 69.4773 4.47338 69.6567C4.65286 69.8362 4.89628 69.937 5.1501 69.937H11.986C12.2399 69.937 12.4833 69.8362 12.6628 69.6567C12.8422 69.4773 12.9431 69.2338 12.9431 68.98V66.0433H26.8884V68.98C26.8884 69.2338 26.9892 69.4773 27.1687 69.6567C27.3482 69.8362 27.5916 69.937 27.8454 69.937H34.6814C34.9352 69.937 35.1786 69.8362 35.3581 69.6567C35.5376 69.4773 35.6384 69.2338 35.6384 68.98V66.0433H36.1399C37.1185 66.0421 38.0568 65.6528 38.7488 64.9608C39.4408 64.2688 39.8301 63.3306 39.8313 62.3519V28.9214C39.8309 28.4055 39.7221 27.8955 39.5118 27.4244C39.3015 26.9533 38.9945 26.5317 38.6107 26.187C38.9945 25.8424 39.3015 25.4208 39.5118 24.9497C39.7221 24.4786 39.8309 23.9686 39.8313 23.4527ZM11.029 68.023H6.10714V66.0433H11.029V68.023ZM33.7243 68.023H28.8024V66.0433H33.7243V68.023ZM37.9172 28.9214V62.3519C37.9166 62.8231 37.7292 63.2748 37.396 63.608C37.0628 63.9412 36.6111 64.1286 36.1399 64.1292H3.69159C3.22039 64.1286 2.76865 63.9412 2.43546 63.608C2.10227 63.2748 1.91482 62.8231 1.91425 62.3519V28.9214C1.91482 28.4502 2.10227 27.9985 2.43546 27.6653C2.76865 27.3321 3.22039 27.1447 3.69159 27.1441H36.1399C36.6111 27.1447 37.0628 27.3321 37.396 27.6653C37.7292 27.9985 37.9166 28.4502 37.9172 28.9214V28.9214ZM3.69159 25.23C3.22039 25.2294 2.76865 25.042 2.43546 24.7088C2.10227 24.3756 1.91482 23.9239 1.91425 23.4527V3.69134C1.91482 3.22014 2.10227 2.7684 2.43546 2.43521C2.76865 2.10202 3.22039 1.91458 3.69159 1.914H36.1399C36.6111 1.91458 37.0628 2.10202 37.396 2.43521C37.7292 2.7684 37.9166 3.22014 37.9172 3.69134V23.4527C37.9166 23.9239 37.7292 24.3756 37.396 24.7088C37.0628 25.042 36.6111 25.2294 36.1399 25.23H3.69159Z" fill="white"/>
</svg>
