<svg width="65" height="70" viewBox="0 0 65 70" fill="none" xmlns="http://www.w3.org/2000/svg">
<path d="M63.9818 36.7881L60.893 27.2846C59.3366 22.4955 56.5518 18.1657 52.8395 14.7633C49.1273 11.3606 44.5717 8.9626 39.6653 7.82825L32.8827 6.26009C32.8812 6.25982 14.0623 2.16551 14.0623 2.16551C13.5072 2.04438 12.9609 2.39656 12.8402 2.95068C12.7196 3.50508 13.0711 4.05222 13.6253 4.17281L32.4196 8.26178C32.4198 8.26178 32.4591 8.27094 32.4591 8.27094C36.747 9.21567 39.9181 12.7708 40.3537 17.1265C40.8863 22.4508 42.0399 28.3707 43.783 34.722C46.102 43.1724 45.9889 50.2363 45.4858 54.6737C45.0903 58.1632 44.3986 60.6199 44.0433 61.7195H30.3276C29.7602 61.7195 29.3004 62.1793 29.3004 62.7467C29.3004 63.3141 29.7602 63.7738 30.3276 63.7738H44.1903L46.3644 67.4193C46.4546 67.5707 46.4054 67.7037 46.3679 67.7694C46.3306 67.8352 46.2416 67.9455 46.0653 67.9455H2.40691C2.23068 67.9455 2.14168 67.8352 2.10422 67.7694C2.06689 67.7038 2.01768 67.5707 2.10791 67.4194L4.28201 63.7738H26.2188C26.7861 63.7738 27.2459 63.3141 27.2459 62.7467C27.2459 62.1793 26.7861 61.7195 26.2188 61.7195H4.45878C2.80244 56.239 2.17094 51.3613 2.47978 46.4321C2.7673 41.8426 3.83111 37.776 4.95712 33.4707C6.35944 28.1089 7.80961 22.5647 7.95481 15.4027C8.03534 11.4391 5.62089 6.27349 3.58119 2.63801C3.44242 2.29211 3.62644 2.0467 3.99804 2.07842L9.61197 3.29986C10.1672 3.42099 10.7135 3.06867 10.8341 2.51469C10.9547 1.96029 10.6032 1.41315 10.0489 1.29256L4.43486 0.0705721C2.45887 -0.437063 0.726096 1.90137 1.78949 3.64275C3.35697 6.43687 5.97581 11.6747 5.90103 15.3606C5.76062 22.2797 4.34175 27.7044 2.96965 32.9505C0.722815 41.5408 -1.39988 49.6607 2.58205 62.6134L0.343558 66.3671C-0.104879 67.1192 -0.114586 68.0226 0.317855 68.784C0.750432 69.5454 1.53123 70 2.40691 70H46.0655C46.941 70 47.722 69.5455 48.1544 68.784C48.587 68.0228 48.5773 67.1191 48.1288 66.367L45.9048 62.6377C46.2604 61.5959 47.0627 58.9351 47.517 54.9942C48.0513 50.3592 48.1811 42.9853 45.7643 34.1781C44.2169 28.5396 43.1449 23.2576 42.5677 18.4479C46.9621 19.9807 50.4733 23.3905 52.1168 27.8016C52.5719 29.062 54.5237 28.3223 54.042 27.0844C52.0678 21.7856 47.7098 17.7658 42.3035 16.21C41.9135 13.7629 40.8013 11.5566 39.1745 9.82324L39.2028 9.82981C43.7645 10.8845 48.0001 13.1142 51.4515 16.2776C54.9031 19.441 57.4923 23.4668 58.9394 27.9196L62.0282 37.423C62.2222 38.0198 62.1218 38.6533 61.753 39.1611C61.3841 39.6689 60.8128 39.96 60.1852 39.96C59.3801 39.96 58.6503 39.453 58.3693 38.6986L55.3087 30.4835C55.1105 29.9518 54.5185 29.6815 53.9875 29.8794C53.4558 30.0775 53.1854 30.6691 53.3835 31.2005L56.4441 39.4155C57.0231 40.9699 58.5266 42.0141 60.1852 42.0141C61.478 42.0141 62.6553 41.4142 63.4152 40.3683C64.1745 39.3228 64.3812 38.0177 63.9818 36.7881V36.7881Z" fill="white"/>
</svg>
